HIERARCHY
ROOT hip
{
	OFFSET 0.000000 0.000000 0.000000 
	CHANNELS 6 Xposition Yposition Zposition Xrotation Zrotation Yrotation
	JOINT abdomen
	{
		OFFSET 0.000000 3.402643 0.000000 
		CHANNELS 3 Xrotation Zrotation Yrotation
		JOINT chest
		{
			OFFSET 0.000000 8.438565 -0.680529 
			CHANNELS 3 Xrotation Zrotation Yrotation
			JOINT neck
			{
				OFFSET 0.000000 10.207942 -0.272212 
				CHANNELS 3 Xrotation Zrotation Yrotation
				JOINT head
				{
					OFFSET 0.000000 3.130431 0.000000 
					CHANNELS 3 Xrotation Zrotation Yrotation
					End Site
					{
						OFFSET 0.000000 3.130435 0.000000 
					}
				}
			}
			JOINT lCollar
			{
				OFFSET 3.470700 6.669187 -0.816635 
				CHANNELS 3 Yrotation Zrotation Xrotation
				JOINT lShldr
				{
					OFFSET 3.198488 0.000000 0.000000 
					CHANNELS 3 Zrotation Yrotation Xrotation
					JOINT lForeArm
					{
						OFFSET 10.139888 0.000000 0.000000 
						CHANNELS 3 Yrotation Zrotation Xrotation
						JOINT lHand
						{
							OFFSET 8.370511 0.000000 0.000000 
							CHANNELS 3 Zrotation Yrotation Xrotation
							End Site
							{
								OFFSET 4.083176 0.000000 0.000000 
							}
						}
					}
				}
			}
			JOINT rCollar
			{
				OFFSET -3.470700 6.669187 -0.816635 
				CHANNELS 3 Yrotation Zrotation Xrotation
				JOINT rShldr
				{
					OFFSET -3.198488 0.000000 0.000000 
					CHANNELS 3 Zrotation Yrotation Xrotation
					JOINT rForeArm
					{
						OFFSET -10.139888 0.000000 0.000000 
						CHANNELS 3 Yrotation Zrotation Xrotation
						JOINT rHand
						{
							OFFSET -8.370511 0.000000 0.000000 
							CHANNELS 3 Zrotation Yrotation Xrotation
							End Site
							{
								OFFSET -4.083176 0.000000 0.000000 
							}
						}
					}
				}
			}
		}
	}
	JOINT lThigh
	{
		OFFSET 5.308129 -1.633274 1.361059 
		CHANNELS 3 Xrotation Zrotation Yrotation
		JOINT lShin
		{
			OFFSET -2.041588 -20.007561 0.000000 
			CHANNELS 3 Xrotation Zrotation Yrotation
			JOINT lFoot
			{
				OFFSET 0.000000 -19.190928 -1.224953 
				CHANNELS 3 Xrotation Yrotation Zrotation
				End Site
				{
					OFFSET 0.000000 -2.449906 4.627600 
				}
			}
		}
	}
	JOINT rThigh
	{
		OFFSET -5.308129 -1.633274 1.361059 
		CHANNELS 3 Xrotation Zrotation Yrotation
		JOINT rShin
		{
			OFFSET 2.041588 -20.007561 0.000000 
			CHANNELS 3 Xrotation Zrotation Yrotation
			JOINT rFoot
			{
				OFFSET 0.000000 -19.190928 -1.224953 
				CHANNELS 3 Xrotation Yrotation Zrotation
				End Site
				{
					OFFSET 0.000000 -2.449906 4.627600 
				}
			}
		}
	}
}
MOTION
Frames: 10
Frame Time: 0.033333
-2.146157 33.895542 32.468891 0.507813 -3.408198 3.554113 30.660566 -9.698592 -4.665598 -22.246096 14.863280 -2.089844 -8.603516 0.000000 0.000000 -18.242188 12.861327 9.777565 2.000000 -2.000000 0.000000 -72.177727 -6.660156 -55.938633 -0.172148 -1.793545 0.041344 1.756760 -3.283567 0.058713 -2.000000 2.000000 0.000000 85.527344 -0.302734 -47.207005 19.529152 1.758017 -0.019743 -1.786088 3.264010 0.057537 10.916669 13.952797 0.961512 32.985569 -3.447087 -2.439821 -0.034732 5.442586 -0.001093 -5.956428 -4.423296 -7.697828 7.262128 4.118914 0.618927 9.150102 4.824577 0.003282 
-2.676192 34.094341 33.827297 0.292969 -3.222656 4.541016 30.660566 -9.698592 -4.665598 -22.373049 14.355470 -1.474609 -8.603516 0.000000 0.000000 -18.378906 13.642579 9.687500 2.000000 -2.000000 0.000000 -70.927734 -5.732421 -57.187496 3.822237 -1.792967 0.051089 1.756760 -3.283567 0.058713 -2.000000 2.000000 0.000000 86.718750 -0.849609 -44.443508 24.334084 1.758594 -0.029488 -1.786088 3.264010 0.057537 8.462730 14.650799 0.843235 38.172756 -3.213299 -2.748688 3.897046 5.283103 -0.003253 -4.049877 -3.706847 -11.727420 8.038226 4.098672 0.665988 7.581492 7.338110 0.021822 
-3.125779 34.239079 35.043037 0.136719 -2.861328 5.126953 30.660566 -9.698592 -4.665598 -22.451172 13.935549 -0.251554 -8.603516 0.000000 0.000000 -18.466797 13.261718 9.064742 2.000000 -2.000000 0.000000 -71.191406 -4.296875 -56.435944 4.886690 -1.792967 0.051089 1.756760 -3.283567 0.058713 -2.000000 2.000000 0.000000 86.933594 -0.986328 -42.168137 27.732521 1.758594 -0.029488 -1.786088 3.264010 0.057537 5.682101 14.867905 0.855156 43.093834 -2.969527 -3.012657 6.000260 5.205101 0.009900 -2.420936 -3.220284 -15.309625 8.752855 4.078721 0.756541 6.144623 9.966537 -0.017209 
-3.498519 34.340004 36.132710 0.087891 -2.373046 5.214441 30.660566 -9.698592 -4.665598 -22.480469 13.593751 1.494141 -8.603516 0.000000 0.000000 -18.710938 12.148437 8.242188 2.000000 -2.000000 0.000000 -72.441406 -2.626953 -55.205074 4.408174 -1.792967 0.051089 1.756760 -3.283567 0.058713 -2.000000 2.000000 0.000000 86.601563 -0.546875 -41.025391 29.910501 1.759172 -0.039234 -1.786088 3.264010 0.057537 2.723980 14.597872 1.100105 47.105946 -2.762054 -3.194009 6.038277 5.293783 -0.055638 -1.180586 -2.931650 -18.026478 9.495847 4.100635 0.695802 4.960182 12.493058 0.003367 
-3.801722 34.413471 37.132206 0.087891 -1.884766 5.009766 30.660566 -9.698592 -4.665598 -22.431643 13.212891 3.378907 -8.603516 0.000000 0.000000 -19.121094 10.937499 7.509768 2.000000 -2.000000 0.000000 -74.003906 -0.957031 -54.365398 3.695283 -1.792968 0.051089 1.756760 -3.283567 0.058713 -2.000000 2.000000 0.000000 86.201172 0.244141 -40.976543 31.248142 1.758594 -0.029489 -1.786088 3.264010 0.057537 -0.302824 13.965740 1.560061 49.713127 -2.665063 -3.275005 4.409571 5.585944 -0.016878 -0.224930 -2.771321 -20.082386 10.281651 4.087761 0.811256 3.928625 14.683421 -0.038636 
-4.043332 34.470222 38.077015 0.058594 -1.425781 4.785155 30.660566 -9.698592 -4.665598 -22.314455 12.841798 5.039063 -8.603516 0.000000 0.000000 -19.687502 9.853516 7.099611 2.000000 -2.000000 0.000000 -75.537109 0.527344 -53.945354 3.402314 -1.792967 0.051089 1.756760 -3.283567 0.058713 -2.000000 2.000000 0.000000 85.937500 1.103516 -41.240047 32.137306 1.759749 -0.048979 -1.786088 3.264010 0.057537 -3.231441 13.147694 2.190349 50.457787 -2.637853 -3.297979 1.896849 6.089205 -0.025038 0.721896 -2.713236 -21.488737 10.862254 4.076018 0.843980 2.962858 16.309017 -0.040517 
-4.230294 34.511711 38.987785 -0.048828 -1.025391 4.687500 30.660566 -9.698592 -4.665598 -22.080078 12.519532 6.347657 -8.603516 0.000000 0.000000 -20.341797 8.945312 7.138672 2.000000 -2.000000 0.000000 -76.943359 1.728516 -53.730175 3.451124 -1.783218 0.050510 1.756760 -3.283567 0.058713 -2.000000 2.000000 0.000000 85.810547 1.728516 -41.093452 32.781837 1.759749 -0.048979 -1.786088 3.264010 0.057537 -5.888276 12.283812 2.868052 49.145321 -2.676712 -3.248364 -0.690793 6.820476 0.018981 1.783243 -2.708873 -22.405432 11.192370 4.055579 0.866912 2.062612 17.390125 -0.015788 
-4.367990 34.533558 39.872074 -0.175781 -0.693359 4.648437 30.660566 -9.698592 -4.665598 -21.767578 12.265625 7.384887 -8.603516 0.000000 0.000000 -21.044924 8.115233 7.597657 2.000000 -2.000000 0.000000 -78.310547 2.636719 -53.476780 3.636672 -1.783218 0.050510 1.756760 -3.283567 0.058713 -2.000000 2.000000 0.000000 85.771484 1.982422 -40.273106 33.260349 1.759749 -0.048979 -1.786088 3.264010 0.057537 -8.104245 11.433311 3.753639 45.822456 -2.851524 -3.088676 -2.660483 7.425380 -0.005614 2.962389 -2.737423 -22.929350 11.330043 4.046105 0.895731 1.179809 17.961678 -0.019065 
-4.460263 34.533436 40.735489 -0.253906 -0.439453 4.501953 30.660566 -9.698592 -4.665598 -21.533203 12.050781 8.253992 -8.603516 0.000000 0.000000 -21.660156 7.451171 8.369141 2.000000 -2.000000 0.000000 -79.609375 3.271485 -53.095146 3.734346 -1.792967 0.051089 1.756760 -3.283567 0.058713 -2.000000 2.000000 0.000000 85.771484 1.914063 -38.993813 33.494728 1.759749 -0.048979 -1.786088 3.264010 0.057537 -9.716620 10.683300 5.476631 40.738380 -3.094610 -2.857225 -3.763213 7.372169 0.002352 4.144393 -2.798816 -23.024984 11.274857 4.057217 0.872826 0.364588 18.270025 -0.024303 
-4.509456 34.513180 41.588165 -0.244141 -0.302734 4.101566 30.660566 -9.698592 -4.665598 -21.455078 11.875000 9.052735 -8.603516 0.000000 0.000000 -22.138670 6.962890 9.249232 2.000000 -2.000000 0.000000 -80.703125 3.681641 -52.665394 3.714797 -1.783218 0.050510 1.756760 -3.283567 0.058713 -2.000000 2.000000 0.000000 85.859375 1.650391 -37.714558 33.406841 1.759749 -0.048979 -1.786088 3.264010 0.057537 -10.699502 9.946673 8.656774 34.198643 -3.405165 -2.458508 -3.913583 6.167699 0.003103 5.251081 -2.889201 -22.832203 11.086689 4.024705 0.934510 -0.337333 18.485683 -0.036032 
